<svg width="16" height="14" viewBox="0 0 16 14" fill="none" xmlns="http://www.w3.org/2000/svg">
<path d="M8.29311 0.298894C8.48064 0.11142 8.73495 0.00610352 9.00012 0.00610352C9.26529 0.00610352 9.5196 0.11142 9.70713 0.298894L15.7072 6.29897C15.8947 6.4865 16 6.74082 16 7.00598C16 7.27115 15.8947 7.52546 15.7072 7.71299L9.70713 13.7131C9.51853 13.8952 9.26592 13.996 9.00372 13.9938C8.74152 13.9915 8.4907 13.8863 8.30529 13.7009C8.11988 13.5155 8.01471 13.2647 8.01243 13.0025C8.01015 12.7403 8.11095 12.4877 8.29311 12.2991L12.5862 8.006H1.00001C0.734793 8.006 0.480436 7.90064 0.292897 7.7131C0.105358 7.52556 0 7.2712 0 7.00598C0 6.74076 0.105358 6.48641 0.292897 6.29887C0.480436 6.11133 0.734793 6.00597 1.00001 6.00597H12.5862L8.29311 1.71291C8.10564 1.52538 8.00032 1.27107 8.00032 1.0059C8.00032 0.740736 8.10564 0.486424 8.29311 0.298894Z" fill="#0D0D0D"/>
</svg>
