<svg width="25" height="25" viewBox="0 0 25 25" fill="none" xmlns="http://www.w3.org/2000/svg">
<path d="M9.84704 2.90024C7.88834 2.90024 6.00987 3.65932 4.62486 5.01049C3.23985 6.36166 2.46176 8.19424 2.46176 10.1051C2.46176 12.0159 3.23985 13.8485 4.62486 15.1997C6.00987 16.5508 7.88834 17.3099 9.84704 17.3099C11.8057 17.3099 13.6842 16.5508 15.0692 15.1997C16.4542 13.8485 17.2323 12.0159 17.2323 10.1051C17.2323 8.19424 16.4542 6.36166 15.0692 5.01049C13.6842 3.65932 11.8057 2.90024 9.84704 2.90024ZM6.08255e-08 10.1051C0.000224422 8.57628 0.374456 7.06962 1.09159 5.7103C1.80873 4.35098 2.84806 3.17826 4.12321 2.28961C5.39836 1.40096 6.87249 0.822044 8.4231 0.600971C9.97372 0.379899 11.556 0.523056 13.0385 1.01855C14.521 1.51404 15.8609 2.34755 16.9468 3.44981C18.0326 4.55207 18.8332 5.89125 19.2819 7.35604C19.7305 8.82084 19.8144 10.3689 19.5264 11.8717C19.2384 13.3745 18.587 14.7885 17.6262 15.9962L24.257 22.465C24.4812 22.6915 24.6052 22.9948 24.6024 23.3096C24.5996 23.6245 24.4702 23.9256 24.242 24.1483C24.0137 24.3709 23.705 24.4972 23.3823 24.5C23.0596 24.5027 22.7486 24.3817 22.5165 24.1629L15.8857 17.6942C14.4302 18.7966 12.6867 19.4785 10.8536 19.6623C9.02052 19.846 7.17134 19.5243 5.51637 18.7337C3.8614 17.9431 2.46704 16.7152 1.49186 15.1899C0.516673 13.6645 -0.000204721 11.9028 6.08255e-08 10.1051Z" fill="#0D0D0D"/>
</svg>
